<svg xmlns="http://www.w3.org/2000/svg" width="85.698" height="86.294" viewBox="0 0 85.698 86.294">
  <path id="fingers-crossed-svgrepo-com" d="M20.18,18.52V56.1c7.484,15.738,10.855,26.26,29.353,43.07l.055.036.018.036a2.228,2.228,0,0,0,1.981.672A6.534,6.534,0,0,0,54.44,98.75a11.822,11.822,0,0,0,3.907-4.471L47.334,83.122l2.2-2.2L61.8,93.171c.254.254.509.363,1.272.218a8.009,8.009,0,0,0,2.835-1.29,13.6,13.6,0,0,0,4.452-5.179L59.892,75.652l2.126-2.2s26.315,19.5,39.672,23.916c1.781.582,3.562-1.6,4.034-3.253a5.422,5.422,0,0,0-1.981-5.561C95.838,83.612,68.76,65.639,68.76,65.639L70.6,63.967,87.7,75.634,77.52,57.988,67.215,45.14l1.527-1.454L77.9,54.881a36.442,36.442,0,0,0-.327-7.124A12.125,12.125,0,0,0,75.321,42.7c-3.053-3.707-7.669-5.8-11.74-8.323C54.24,28.555,42.954,25.088,34.66,18.52ZM82.79,89.809a.487.487,0,0,0,.036.164l.073.055C82.844,89.9,82.808,89.809,82.79,89.809Zm.109.218c.4.872,1.908,4.561,2.726,6.142a41.774,41.774,0,0,0,2.69,4.8c1.49,2.253,2.544,3.671,4.525,3.835a4.591,4.591,0,0,0,4.2-2.526c.709-1.472-.818-4.834-.818-4.834Z" transform="translate(-20.18 -18.52)"/>
</svg>
